<?xml version="1.0" encoding="UTF-8" standalone="no"?>
<svg
   xmlns:dc="http://purl.org/dc/elements/1.1/"
   xmlns:cc="http://creativecommons.org/ns#"
   xmlns:rdf="http://www.w3.org/1999/02/22-rdf-syntax-ns#"
   xmlns:svg="http://www.w3.org/2000/svg"
   xmlns="http://www.w3.org/2000/svg"
   xmlns:sodipodi="http://sodipodi.sourceforge.net/DTD/sodipodi-0.dtd"
   xmlns:inkscape="http://www.inkscape.org/namespaces/inkscape"
   version="1.1"
   x="0"
   y="0"
   width="484.29947"
   height="484.29947"
   viewBox="0 0 484.29947 484.29947"
   id="svg59"
   sodipodi:docname="remote.svg"
   inkscape:version="1.0 (4035a4fb49, 2020-05-01)">
  <metadata
     id="metadata63">
    <rdf:RDF>
      <cc:Work
         rdf:about="">
        <dc:format>image/svg+xml</dc:format>
        <dc:type
           rdf:resource="http://purl.org/dc/dcmitype/StillImage" />
        <dc:title></dc:title>
      </cc:Work>
    </rdf:RDF>
  </metadata>
  <sodipodi:namedview
     inkscape:document-rotation="0"
     pagecolor="#ffffff"
     bordercolor="#666666"
     borderopacity="1"
     objecttolerance="10"
     gridtolerance="10"
     guidetolerance="10"
     inkscape:pageopacity="0"
     inkscape:pageshadow="2"
     inkscape:window-width="1741"
     inkscape:window-height="1292"
     id="namedview61"
     showgrid="false"
     fit-margin-top="0"
     fit-margin-left="0"
     fit-margin-right="0"
     fit-margin-bottom="0"
     inkscape:zoom="0.89842932"
     inkscape:cx="-50.15675"
     inkscape:cy="241.41828"
     inkscape:window-x="2095"
     inkscape:window-y="32"
     inkscape:window-maximized="0"
     inkscape:current-layer="svg59" />
  <defs
     id="defs5">
    <clipPath
       id="Clip_1">
      <path
         d="M 0.06,0.943 H 855.146 V 954.94 H 0.06 Z"
         id="path2" />
    </clipPath>
  </defs>
  <g
     id="Layer_1"
     transform="matrix(0.5663349,0,0,0.50681837,0,-0.47792972)">
    <path
       d="m 386.385,810.002 c 0,0 -33.973,44.188 -71.889,65.656 C 276.58,897.127 193.199,766.422 193.199,766.422 l 70.864,-42.114 c 6,10 35,53 35,53 20.929,-32.224 89.99,-131.469 89.99,-131.469 l 192.454,10.486 C 651.447,768.008 652.004,946.5 652.004,946.5 H 375.642 c 8.868,-104.889 14.949,-204.464 14.949,-204.464"
       fill="#fffffe"
       id="path838" />
    <path
       d="m 95.743,454.88 c 0,0 -15.05,-17.305 -27.055,-29.478 M 50.498,586.13 c -16.927,4.622 -21.69,2.235 -41.998,7.782 m 53.843,-73.31 C 46.371,513.341 30.4,506.081 11.234,497.365"
       fill-opacity="0"
       stroke="#cc5655"
       stroke-width="17"
       stroke-linecap="round"
       stroke-linejoin="round"
       id="path840" />
    <path
       d="m 389.053,645.839 c 0,0 -69.061,99.245 -89.99,131.469 0,0 -29,-43 -35,-53 l -70.864,42.114 c 0,0 83.381,130.705 121.297,109.236 37.916,-21.468 71.889,-65.656 71.889,-65.656"
       fill="#fffffe"
       id="path842" />
    <path
       d="m 389.053,645.839 c 0,0 -69.061,99.245 -89.99,131.469 0,0 -29,-43 -35,-53 l -70.864,42.114 c 0,0 83.381,130.705 121.297,109.236 37.916,-21.468 71.889,-65.656 71.889,-65.656"
       fill-opacity="0"
       stroke="#6e4100"
       stroke-width="17"
       stroke-linecap="round"
       stroke-linejoin="round"
       id="path844" />
    <path
       d="M 375.642,946.5 C 384.51,841.611 390.591,742.036 390.591,742.036"
       fill="#fffffe"
       id="path846" />
    <path
       d="M 375.642,946.5 C 384.51,841.611 390.591,742.036 390.591,742.036"
       fill-opacity="0"
       stroke="#6e4100"
       stroke-width="17"
       stroke-linecap="round"
       stroke-linejoin="round"
       id="path848" />
    <path
       d="m 581.896,742.036 c 0,0 4.849,97.218 13.615,203.702"
       fill="#fffffe"
       id="path850" />
    <g
       clip-path="url(#Clip_1)"
       id="g858">
      <path
         d="m 581.896,742.036 c 0,0 4.849,97.218 13.615,203.702"
         fill-opacity="0"
         stroke="#6e4100"
         stroke-width="17"
         stroke-linecap="round"
         stroke-linejoin="round"
         id="path852" />
      <path
         d="m 320.571,93.706 c -196,206 -65,487 -81,531 -16,44 -73.419,18.404 -73.419,18.404 -1.026,-0.834 -1.507,-1.33 -1.507,-1.33 58.404,-47.512 13.308,-101.895 -10.006,-153.891 -17.819,-39.734 -26.414,-83.48 -26.511,-126.965 -0.257,-116.847 62.421,-254.816 175,-300.144 l 17.443,32.926"
         fill="#fffffe"
         id="path854" />
      <path
         d="M 846.646,350.932 C 846.765,297.272 832.764,242.965 807.896,193.77 787.282,149.446 757.924,109.571 720.601,80.932 678.186,44.007 627.288,17.737 571.394,8.387 483.444,-6.326 398.474,-3.193 327.466,54.51 220.344,103.276 160.879,237.11 161.128,350.924 c 0.097,43.485 8.692,87.231 26.511,126.965 23.314,51.996 68.41,106.379 10.006,153.891 0,0 48.483,50 210.483,-10 h 188.039 c 162,60 210.482,10 210.482,10 -13.478,-10.965 -18.388,-25.627 -18.388,-25.627 -21.354,-40.92 12.654,-85.402 31.875,-128.264 17.816,-39.734 26.414,-83.48 26.51,-126.957"
         fill="#d8ab6f"
         id="path856" />
    </g>
    <path
       d="m 441.089,645.733 43.357,135.072 43.653,-139.113"
       fill="#fff8eb"
       id="path860" />
    <path
       d="m 466.513,709.737 h 38.508 l -20.583,54.557"
       fill="#6e4100"
       id="path872" />
    <path
       d="m 441.089,645.733 43.357,135.072 43.653,-139.113"
       fill-opacity="0"
       stroke="#6e4100"
       stroke-width="17"
       stroke-linecap="round"
       stroke-linejoin="round"
       id="path862" />
    <path
       d="m 558.591,658.118 6,52.533 -32.998,10.104 19.498,46.47 -44.998,28.289"
       fill="#fffffe"
       id="path864" />
    <path
       d="m 558.591,658.118 6,52.533 -32.998,10.104 19.498,46.47 -44.998,28.289"
       fill-opacity="0"
       stroke="#6e4100"
       stroke-width="17"
       stroke-linecap="round"
       stroke-linejoin="round"
       id="path866" />
    <path
       d="m 410.599,658.118 -6,52.533 32.998,10.104 -19.498,46.47 44.996,28.289"
       fill="#fffffe"
       id="path868" />
    <path
       d="m 410.599,658.118 -6,52.533 32.998,10.104 -19.498,46.47 44.996,28.289"
       fill-opacity="0"
       stroke="#6e4100"
       stroke-width="17"
       stroke-linecap="round"
       stroke-linejoin="round"
       id="path870" />
    <path
       d="M 810.128,641.78 C 751.724,594.268 796.819,539.885 820.136,487.889 837.952,448.155 846.55,404.409 846.646,360.932 846.991,205.567 729.017,44.757 571.394,18.387 481.048,3.274 393.843,6.981 321.69,69.342"
       fill="#d8ab6f"
       id="path874" />
    <path
       d="M 810.128,641.78 C 751.724,594.268 796.819,539.885 820.136,487.889 837.952,448.155 846.55,404.409 846.646,360.932 846.991,205.567 729.017,44.757 571.394,18.387 481.048,3.274 393.843,6.981 321.69,69.342 m 9.061,-10.32 c -9.872,2.236 -19.465,5.106 -28.524,8.752 -112.579,45.328 -173.356,176.303 -173.099,293.15 0.097,43.485 8.692,87.231 26.511,126.965 23.314,51.996 68.41,106.379 10.006,153.891"
       fill-opacity="0"
       stroke="#6e4100"
       stroke-width="17"
       stroke-linecap="round"
       stroke-linejoin="round"
       id="path876" />
    <path
       d="m 230.563,403.462 c 0,0 -44.833,-20.817 -44.833,35.224 0,56.037 49.637,44.832 49.637,44.832"
       fill="#fff8eb"
       id="path878" />
    <path
       d="m 230.563,403.462 c 0,0 -44.833,-20.817 -44.833,35.224 0,56.037 49.637,44.832 49.637,44.832"
       fill-opacity="0"
       stroke="#6e4100"
       stroke-width="17"
       stroke-linecap="round"
       stroke-linejoin="round"
       id="path880" />
    <path
       d="m 741.724,403.462 c 0,0 44.834,-20.817 44.834,35.224 0,56.037 -49.637,44.832 -49.637,44.832"
       fill="#fff8eb"
       id="path882" />
    <path
       d="m 741.724,403.462 c 0,0 44.834,-20.817 44.834,35.224 0,56.037 -49.637,44.832 -49.637,44.832"
       fill-opacity="0"
       stroke="#6e4100"
       stroke-width="17"
       stroke-linecap="round"
       stroke-linejoin="round"
       id="path884" />
    <path
       d="M 745.32,385.229 C 713.313,142.639 509.451,137.819 485.064,138.124 c -24.769,-0.192 -228.173,5.679 -259.318,248.093 0,0 -32.758,272.836 257.818,275.319 v 0.031 c 0.799,-0.006 1.588,-0.02 2.375,-0.025 0.838,0.005 1.665,0.019 2.514,0.019 v -0.039 C 779.033,657.94 745.32,385.229 745.32,385.229"
       fill="#fff8eb"
       id="path886" />
    <path
       d="m 227.139,471.456 c -3.752,24.029 11.826,46.047 32.347,54.043 19.91,7.767 42.666,9.642 59.435,-5.1 16.621,-14.617 29.084,-33.85 22.308,-57.41 -5.585,-19.352 -17.632,-37.961 -36.35,-45.057 -36.279,-13.74 -71.932,16.256 -77.74,53.524"
       fill="#ffd6bb"
       id="path888" />
    <path
       d="m 623.177,471.456 c -3.752,24.029 11.826,46.047 32.347,54.043 19.911,7.767 42.666,9.642 59.436,-5.1 16.621,-14.617 29.084,-33.85 22.309,-57.41 -5.586,-19.352 -17.633,-37.961 -36.352,-45.057 -36.279,-13.74 -71.932,16.256 -77.74,53.524"
       fill="#ffd6bb"
       id="path890" />
    <path
       d="M 745.276,385.229 C 713.269,142.639 509.407,137.819 485.021,138.124 c -24.77,-0.192 -228.175,5.679 -259.32,248.093 0,0 -32.758,272.836 257.82,275.319 v 0.031 c 0.798,-0.006 1.587,-0.02 2.375,-0.025 0.837,0.005 1.664,0.019 2.513,0.019 v -0.039 C 778.989,657.94 745.276,385.229 745.276,385.229 Z"
       fill-opacity="0"
       stroke="#6e4100"
       stroke-width="17"
       stroke-linecap="round"
       stroke-linejoin="round"
       id="path892" />
    <path
       d="m 343.946,252.21 c 5.223,-11.948 27.364,-22.485 38.696,-11.426"
       fill-opacity="0"
       stroke="#6e4100"
       stroke-width="12"
       stroke-linecap="round"
       stroke-linejoin="round"
       id="path894" />
    <path
       d="m 405.112,141.21 c 30.225,64.914 79.836,120.224 139.516,159.587 47.797,31.532 176.516,85.399 217.943,80.141 0,0 0.021,-150.459 -88,-200.232 -168,-95 -269.459,-39.496 -269.459,-39.496"
       fill="#d8ab6f"
       id="path896" />
    <path
       d="m 212.652,153.649 c 0,0 5.642,65.744 75.969,52.457 0,0 -27.156,37.613 -104.641,5.029"
       fill="#fffffe"
       id="path898" />
    <path
       d="m 405.112,141.21 c 30.225,64.914 79.836,120.224 139.516,159.587 47.797,31.532 162.738,85.399 204.166,80.141 M 537.651,137.983 c 0,0 30.327,104.393 193.42,179.311"
       fill-opacity="0"
       stroke="#6e4100"
       stroke-width="17"
       stroke-linecap="round"
       stroke-linejoin="round"
       id="path900" />
    <path
       d="m 497.261,845.598 c 0,6.453 -5.231,11.686 -11.684,11.686 -6.455,0 -11.685,-5.233 -11.685,-11.686 0,-6.453 5.23,-11.683 11.685,-11.683 6.453,0 11.684,5.23 11.684,11.683"
       fill="#6e4100"
       id="path902" />
    <path
       d="m 497.261,913.725 c 0,6.453 -5.231,11.684 -11.684,11.684 -6.455,0 -11.685,-5.231 -11.685,-11.684 0,-6.453 5.23,-11.685 11.685,-11.685 6.453,0 11.684,5.232 11.684,11.685"
       fill="#6e4100"
       id="path904" />
    <path
       d="m 327.434,365.929 c 3.462,8.758 8.095,14.203 16.599,17.254"
       fill-opacity="0"
       stroke="#6e4100"
       stroke-width="13"
       stroke-linecap="round"
       stroke-linejoin="round"
       id="path906" />
    <path
       d="m 391.396,394.308 c -9.136,-32.336 -51.31,-18.896 -50.412,10.725"
       fill-opacity="0"
       stroke="#6e4100"
       stroke-width="17"
       stroke-linecap="round"
       stroke-linejoin="round"
       id="path908" />
    <path
       d="m 562.234,365.929 c 3.418,8.774 8.026,14.244 16.514,17.336"
       fill-opacity="0"
       stroke="#6e4100"
       stroke-width="13"
       stroke-linecap="round"
       stroke-linejoin="round"
       id="path910" />
    <path
       d="m 576.063,394.308 c 9.132,-32.336 51.308,-18.896 50.408,10.725"
       fill-opacity="0"
       stroke="#6e4100"
       stroke-width="17"
       stroke-linecap="round"
       stroke-linejoin="round"
       id="path912" />
    <path
       d="m 485.665,421.292 v -0.04 c 0,0 -0.341,0.004 -0.961,0.017 -0.619,-0.013 -0.959,-0.017 -0.959,-0.017 v 0.04 c -14.976,0.362 -114.516,3.754 -183.976,30.686 0,0 -11.644,84.51 0.64,155.369 38.586,34.026 96.267,58.453 182.284,59.189 v 0.031 c 0.799,-0.006 1.588,-0.02 2.375,-0.025 0.838,0.005 1.664,0.019 2.514,0.019 v -0.039 c 85.545,-1.055 142.976,-25.438 181.442,-59.317 12.245,-70.803 0.617,-155.227 0.617,-155.227 -69.46,-26.932 -169,-30.324 -183.976,-30.686"
       fill="#fffffe"
       id="path914" />
    <path
       d="m 485.665,421.292 v -0.04 c 0,0 -0.341,0.004 -0.961,0.017 -0.619,-0.013 -0.959,-0.017 -0.959,-0.017 v 0.04 c -14.976,0.362 -114.516,3.754 -183.976,30.686 0,0 -11.644,84.51 0.64,155.369 38.586,34.026 96.267,58.453 182.284,59.189 v 0.031 c 0.799,-0.006 1.588,-0.02 2.375,-0.025 0.838,0.005 1.664,0.019 2.514,0.019 v -0.039 c 85.545,-1.055 142.976,-25.438 181.442,-59.317 12.245,-70.803 0.617,-155.227 0.617,-155.227 -69.46,-26.932 -169,-30.324 -183.976,-30.686 z"
       fill-opacity="0"
       stroke="#6e4100"
       stroke-width="17"
       stroke-linecap="round"
       stroke-linejoin="round"
       id="path916" />
    <path
       d="m 645.507,507.771 c -18.978,-9.438 -43.42,-13.39 -59.473,-15.033 m 13.297,93.564 c 14.557,-2.244 31.91,-6.239 46.176,-13.334 M 322.548,507.771 c 9.488,-4.719 20.344,-8.066 30.833,-10.439 m -14.386,82.193 c -5.701,-1.821 -11.277,-3.985 -16.447,-6.557"
       fill-opacity="0"
       stroke="#a0bebe"
       stroke-width="15"
       stroke-linecap="round"
       stroke-linejoin="round"
       id="path918" />
    <path
       d="m 299.769,451.978 -73.706,-58.67"
       fill="#fffffe"
       id="path920" />
    <path
       d="m 299.769,451.978 -73.706,-58.67"
       fill-opacity="0"
       stroke="#6e4100"
       stroke-width="17"
       stroke-linecap="round"
       stroke-linejoin="round"
       id="path922" />
    <path
       d="m 299.769,451.978 -73.706,-58.67"
       fill="#fffffe"
       id="path924" />
    <path
       d="m 299.769,451.978 -73.706,-58.67"
       fill-opacity="0"
       stroke="#6e4100"
       stroke-width="17"
       stroke-linecap="round"
       stroke-linejoin="round"
       id="path926" />
    <path
       d="m 669.063,451.978 73.707,-58.67"
       fill="#fffffe"
       id="path928" />
    <path
       d="m 669.063,451.978 73.707,-58.67 M 652.004,946.5 c 0,0 -0.557,-178.492 -70.497,-290.175"
       fill-opacity="0"
       stroke="#6e4100"
       stroke-width="17"
       stroke-linecap="round"
       stroke-linejoin="round"
       id="path930" />
    <path
       d="m 205.387,634.119 c 0.533,-42.155 -3.78,-57.812 -21.784,-81.087 -14.358,-18.548 -35.692,-6.087 -45.672,8.303 -14.803,21.337 13.156,71.267 30.374,90.067 -20.325,5.721 -32.658,49.035 -30.9,67.252 4.77,49.397 68.338,69.614 106.007,40.752 44.688,-34.242 36.048,-86.9 5.107,-113.492 -11.07,-9.514 -35.346,-12.579 -45.223,-10.192"
       fill="#fff8eb"
       id="path932" />
    <path
       d="m 205.387,634.119 c 0.533,-42.155 -3.78,-57.812 -21.784,-81.087 -14.358,-18.548 -35.692,-6.087 -45.672,8.303 -14.803,21.337 13.156,71.267 30.374,90.067 -20.325,5.721 -32.658,49.035 -30.9,67.252 4.77,49.397 68.338,69.614 106.007,40.752 44.688,-34.242 36.048,-86.9 5.107,-113.492 -11.07,-9.514 -35.346,-12.579 -45.223,-10.192"
       fill-opacity="0"
       stroke="#6e4100"
       stroke-width="17"
       stroke-linecap="round"
       stroke-linejoin="round"
       id="path934" />
    <path
       d="m 190.026,670.619 c 14.91,4.727 20.28,28.906 10.791,40.672 -5.59,6.933 -15.607,9.418 -20.504,0.289 1.048,27.788 -15.465,18.791 -15.465,18.791"
       fill="#fff8eb"
       id="path936" />
    <path
       d="m 190.026,670.619 c 14.91,4.727 20.28,28.906 10.791,40.672 -5.59,6.933 -15.607,9.418 -20.504,0.289 1.048,27.788 -15.465,18.791 -15.465,18.791 m 79.848,-44.884 c -10.644,-1.065 -25.505,-2.122 -29.633,11.045 -3.708,11.813 14.294,16.938 21.797,20.016"
       fill-opacity="0"
       stroke="#6e4100"
       stroke-width="17"
       stroke-linecap="round"
       stroke-linejoin="round"
       id="path938" />
  </g>
</svg>
