<?xml version="1.0" encoding="UTF-8"?>
<!DOCTYPE svg PUBLIC "-//W3C//DTD SVG 1.1//EN" "http://www.w3.org/Graphics/SVG/1.1/DTD/svg11.dtd">
<svg version="1.1" xmlns="http://www.w3.org/2000/svg" xmlns:xlink="http://www.w3.org/1999/xlink" x="0" y="0" width="856" height="955" viewBox="0, 0, 856, 955">
  <defs>
    <clipPath id="Clip_1">
      <path d="M0.06,0.943 L855.146,0.943 L855.146,954.94 L0.06,954.94 z"/>
    </clipPath>
  </defs>
  <g id="Layer_1">
    <path d="M386.385,810.002 C386.385,810.002 352.412,854.19 314.496,875.658 C276.58,897.127 193.199,766.422 193.199,766.422 L264.063,724.308 C270.063,734.308 299.063,777.308 299.063,777.308 C319.992,745.084 389.053,645.839 389.053,645.839 L581.507,656.325 C651.447,768.008 652.004,946.5 652.004,946.5 L375.642,946.5 C384.51,841.611 390.591,742.036 390.591,742.036" fill="#FFFFFE" id="path838"/>
    <path d="M95.743,454.88 C95.743,454.88 80.693,437.575 68.688,425.402 M50.498,586.13 C33.571,590.752 28.808,588.365 8.5,593.912 M62.343,520.602 C46.371,513.341 30.4,506.081 11.234,497.365" fill-opacity="0" stroke="#CC5655" stroke-width="17" stroke-linecap="round" stroke-linejoin="round" id="path840"/>
    <path d="M389.053,645.839 C389.053,645.839 319.992,745.084 299.063,777.308 C299.063,777.308 270.063,734.308 264.063,724.308 L193.199,766.422 C193.199,766.422 276.58,897.127 314.496,875.658 C352.412,854.19 386.385,810.002 386.385,810.002" fill="#FFFFFE" id="path842"/>
    <path d="M389.053,645.839 C389.053,645.839 319.992,745.084 299.063,777.308 C299.063,777.308 270.063,734.308 264.063,724.308 L193.199,766.422 C193.199,766.422 276.58,897.127 314.496,875.658 C352.412,854.19 386.385,810.002 386.385,810.002" fill-opacity="0" stroke="#6E4100" stroke-width="17" stroke-linecap="round" stroke-linejoin="round" id="path844"/>
    <path d="M375.642,946.5 C384.51,841.611 390.591,742.036 390.591,742.036" fill="#FFFFFE" id="path846"/>
    <path d="M375.642,946.5 C384.51,841.611 390.591,742.036 390.591,742.036" fill-opacity="0" stroke="#6E4100" stroke-width="17" stroke-linecap="round" stroke-linejoin="round" id="path848"/>
    <path d="M581.896,742.036 C581.896,742.036 586.745,839.254 595.511,945.738" fill="#FFFFFE" id="path850"/>
    <g clip-path="url(#Clip_1)" id="g858">
      <path d="M581.896,742.036 C581.896,742.036 586.745,839.254 595.511,945.738" fill-opacity="0" stroke="#6E4100" stroke-width="17" stroke-linecap="round" stroke-linejoin="round" id="path852"/>
      <path d="M320.571,93.706 C124.571,299.706 255.571,580.706 239.571,624.706 C223.571,668.706 166.152,643.11 166.152,643.11 C165.126,642.276 164.645,641.78 164.645,641.78 C223.049,594.268 177.953,539.885 154.639,487.889 C136.82,448.155 128.225,404.409 128.128,360.924 C127.871,244.077 190.549,106.108 303.128,60.78 L320.571,93.706" fill="#FFFFFE" id="path854"/>
      <path d="M846.646,350.932 C846.765,297.272 832.764,242.965 807.896,193.77 C787.282,149.446 757.924,109.571 720.601,80.932 C678.186,44.007 627.288,17.737 571.394,8.387 C483.444,-6.326 398.474,-3.193 327.466,54.51 C220.344,103.276 160.879,237.11 161.128,350.924 C161.225,394.409 169.82,438.155 187.639,477.889 C210.953,529.885 256.049,584.268 197.645,631.78 C197.645,631.78 246.128,681.78 408.128,621.78 L596.167,621.78 C758.167,681.78 806.649,631.78 806.649,631.78 C793.171,620.815 788.261,606.153 788.261,606.153 C766.907,565.233 800.915,520.751 820.136,477.889 C837.952,438.155 846.55,394.409 846.646,350.932" fill="#D8AB6F" id="path856"/>
    </g>
    <path d="M441.089,645.733 L484.446,780.805 L528.099,641.692" fill="#FFF8EB" id="path860"/>
    <path d="M466.513,709.737 L505.021,709.737 L484.438,764.294" fill="#6E4100" id="path872"/>
    <path d="M441.089,645.733 L484.446,780.805 L528.099,641.692" fill-opacity="0" stroke="#6E4100" stroke-width="17" stroke-linecap="round" stroke-linejoin="round" id="path862"/>
    <path d="M558.591,658.118 L564.591,710.651 L531.593,720.755 L551.091,767.225 L506.093,795.514" fill="#FFFFFE" id="path864"/>
    <path d="M558.591,658.118 L564.591,710.651 L531.593,720.755 L551.091,767.225 L506.093,795.514" fill-opacity="0" stroke="#6E4100" stroke-width="17" stroke-linecap="round" stroke-linejoin="round" id="path866"/>
    <path d="M410.599,658.118 L404.599,710.651 L437.597,720.755 L418.099,767.225 L463.095,795.514" fill="#FFFFFE" id="path868"/>
    <path d="M410.599,658.118 L404.599,710.651 L437.597,720.755 L418.099,767.225 L463.095,795.514" fill-opacity="0" stroke="#6E4100" stroke-width="17" stroke-linecap="round" stroke-linejoin="round" id="path870"/>
    <path d="M810.128,641.78 C751.724,594.268 796.819,539.885 820.136,487.889 C837.952,448.155 846.55,404.409 846.646,360.932 C846.991,205.567 729.017,44.757 571.394,18.387 C481.048,3.274 393.843,6.981 321.69,69.342" fill="#D8AB6F" id="path874"/>
    <path d="M810.128,641.78 C751.724,594.268 796.819,539.885 820.136,487.889 C837.952,448.155 846.55,404.409 846.646,360.932 C846.991,205.567 729.017,44.757 571.394,18.387 C481.048,3.274 393.843,6.981 321.69,69.342 M330.751,59.022 C320.879,61.258 311.286,64.128 302.227,67.774 C189.648,113.102 128.871,244.077 129.128,360.924 C129.225,404.409 137.82,448.155 155.639,487.889 C178.953,539.885 224.049,594.268 165.645,641.78" fill-opacity="0" stroke="#6E4100" stroke-width="17" stroke-linecap="round" stroke-linejoin="round" id="path876"/>
    <path d="M230.563,403.462 C230.563,403.462 185.73,382.645 185.73,438.686 C185.73,494.723 235.367,483.518 235.367,483.518" fill="#FFF8EB" id="path878"/>
    <path d="M230.563,403.462 C230.563,403.462 185.73,382.645 185.73,438.686 C185.73,494.723 235.367,483.518 235.367,483.518" fill-opacity="0" stroke="#6E4100" stroke-width="17" stroke-linecap="round" stroke-linejoin="round" id="path880"/>
    <path d="M741.724,403.462 C741.724,403.462 786.558,382.645 786.558,438.686 C786.558,494.723 736.921,483.518 736.921,483.518" fill="#FFF8EB" id="path882"/>
    <path d="M741.724,403.462 C741.724,403.462 786.558,382.645 786.558,438.686 C786.558,494.723 736.921,483.518 736.921,483.518" fill-opacity="0" stroke="#6E4100" stroke-width="17" stroke-linecap="round" stroke-linejoin="round" id="path884"/>
    <path d="M745.32,385.229 C713.313,142.639 509.451,137.819 485.064,138.124 C460.295,137.932 256.891,143.803 225.746,386.217 C225.746,386.217 192.988,659.053 483.564,661.536 L483.564,661.567 C484.363,661.561 485.152,661.547 485.939,661.542 C486.777,661.547 487.604,661.561 488.453,661.561 L488.453,661.522 C779.033,657.94 745.32,385.229 745.32,385.229" fill="#FFF8EB" id="path886"/>
    <path d="M227.139,471.456 C223.387,495.485 238.965,517.503 259.486,525.499 C279.396,533.266 302.152,535.141 318.921,520.399 C335.542,505.782 348.005,486.549 341.229,462.989 C335.644,443.637 323.597,425.028 304.879,417.932 C268.6,404.192 232.947,434.188 227.139,471.456" fill="#FFD6BB" id="path888"/>
    <path d="M623.177,471.456 C619.425,495.485 635.003,517.503 655.524,525.499 C675.435,533.266 698.19,535.141 714.96,520.399 C731.581,505.782 744.044,486.549 737.269,462.989 C731.683,443.637 719.636,425.028 700.917,417.932 C664.638,404.192 628.985,434.188 623.177,471.456" fill="#FFD6BB" id="path890"/>
    <path d="M745.276,385.229 C713.269,142.639 509.407,137.819 485.021,138.124 C460.251,137.932 256.846,143.803 225.701,386.217 C225.701,386.217 192.943,659.053 483.521,661.536 L483.521,661.567 C484.319,661.561 485.108,661.547 485.896,661.542 C486.733,661.547 487.56,661.561 488.409,661.561 L488.409,661.522 C778.989,657.94 745.276,385.229 745.276,385.229 z" fill-opacity="0" stroke="#6E4100" stroke-width="17" stroke-linecap="round" stroke-linejoin="round" id="path892"/>
    <path d="M343.946,252.21 C349.169,240.262 371.31,229.725 382.642,240.784" fill-opacity="0" stroke="#6E4100" stroke-width="12" stroke-linecap="round" stroke-linejoin="round" id="path894"/>
    <path d="M405.112,141.21 C435.337,206.124 484.948,261.434 544.628,300.797 C592.425,332.329 721.144,386.196 762.571,380.938 C762.571,380.938 762.592,230.479 674.571,180.706 C506.571,85.706 405.112,141.21 405.112,141.21" fill="#D8AB6F" id="path896"/>
    <path d="M212.652,153.649 C212.652,153.649 218.294,219.393 288.621,206.106 C288.621,206.106 261.465,243.719 183.98,211.135" fill="#FFFFFE" id="path898"/>
    <path d="M405.112,141.21 C435.337,206.124 484.948,261.434 544.628,300.797 C592.425,332.329 707.366,386.196 748.794,380.938 M537.651,137.983 C537.651,137.983 567.978,242.376 731.071,317.294" fill-opacity="0" stroke="#6E4100" stroke-width="17" stroke-linecap="round" stroke-linejoin="round" id="path900"/>
    <path d="M497.261,845.598 C497.261,852.051 492.03,857.284 485.577,857.284 C479.122,857.284 473.892,852.051 473.892,845.598 C473.892,839.145 479.122,833.915 485.577,833.915 C492.03,833.915 497.261,839.145 497.261,845.598" fill="#6E4100" id="path902"/>
    <path d="M497.261,913.725 C497.261,920.178 492.03,925.409 485.577,925.409 C479.122,925.409 473.892,920.178 473.892,913.725 C473.892,907.272 479.122,902.04 485.577,902.04 C492.03,902.04 497.261,907.272 497.261,913.725" fill="#6E4100" id="path904"/>
    <path d="M327.434,365.929 C330.896,374.687 335.529,380.132 344.033,383.183" fill-opacity="0" stroke="#6E4100" stroke-width="13" stroke-linecap="round" stroke-linejoin="round" id="path906"/>
    <path d="M391.396,394.308 C382.26,361.972 340.086,375.412 340.984,405.033" fill-opacity="0" stroke="#6E4100" stroke-width="17" stroke-linecap="round" stroke-linejoin="round" id="path908"/>
    <path d="M562.234,365.929 C565.652,374.703 570.26,380.173 578.748,383.265" fill-opacity="0" stroke="#6E4100" stroke-width="13" stroke-linecap="round" stroke-linejoin="round" id="path910"/>
    <path d="M576.063,394.308 C585.195,361.972 627.371,375.412 626.471,405.033" fill-opacity="0" stroke="#6E4100" stroke-width="17" stroke-linecap="round" stroke-linejoin="round" id="path912"/>
    <path d="M485.665,421.292 L485.665,421.252 C485.665,421.252 485.324,421.256 484.704,421.269 C484.085,421.256 483.745,421.252 483.745,421.252 L483.745,421.292 C468.769,421.654 369.229,425.046 299.769,451.978 C299.769,451.978 288.125,536.488 300.409,607.347 C338.995,641.373 396.676,665.8 482.693,666.536 L482.693,666.567 C483.492,666.561 484.281,666.547 485.068,666.542 C485.906,666.547 486.732,666.561 487.582,666.561 L487.582,666.522 C573.127,665.467 630.558,641.084 669.024,607.205 C681.269,536.402 669.641,451.978 669.641,451.978 C600.181,425.046 500.641,421.654 485.665,421.292" fill="#FFFFFE" id="path914"/>
    <path d="M485.665,421.292 L485.665,421.252 C485.665,421.252 485.324,421.256 484.704,421.269 C484.085,421.256 483.745,421.252 483.745,421.252 L483.745,421.292 C468.769,421.654 369.229,425.046 299.769,451.978 C299.769,451.978 288.125,536.488 300.409,607.347 C338.995,641.373 396.676,665.8 482.693,666.536 L482.693,666.567 C483.492,666.561 484.281,666.547 485.068,666.542 C485.906,666.547 486.732,666.561 487.582,666.561 L487.582,666.522 C573.127,665.467 630.558,641.084 669.024,607.205 C681.269,536.402 669.641,451.978 669.641,451.978 C600.181,425.046 500.641,421.654 485.665,421.292 z" fill-opacity="0" stroke="#6E4100" stroke-width="17" stroke-linecap="round" stroke-linejoin="round" id="path916"/>
    <path d="M645.507,507.771 C626.529,498.333 602.087,494.381 586.034,492.738 M599.331,586.302 C613.888,584.058 631.241,580.063 645.507,572.968 M322.548,507.771 C332.036,503.052 342.892,499.705 353.381,497.332 M338.995,579.525 C333.294,577.704 327.718,575.54 322.548,572.968" fill-opacity="0" stroke="#A0BEBE" stroke-width="15" stroke-linecap="round" stroke-linejoin="round" id="path918"/>
    <path d="M299.769,451.978 L226.063,393.308" fill="#FFFFFE" id="path920"/>
    <path d="M299.769,451.978 L226.063,393.308" fill-opacity="0" stroke="#6E4100" stroke-width="17" stroke-linecap="round" stroke-linejoin="round" id="path922"/>
    <path d="M299.769,451.978 L226.063,393.308" fill="#FFFFFE" id="path924"/>
    <path d="M299.769,451.978 L226.063,393.308" fill-opacity="0" stroke="#6E4100" stroke-width="17" stroke-linecap="round" stroke-linejoin="round" id="path926"/>
    <path d="M669.063,451.978 L742.77,393.308" fill="#FFFFFE" id="path928"/>
    <path d="M669.063,451.978 L742.77,393.308 M652.004,946.5 C652.004,946.5 651.447,768.008 581.507,656.325" fill-opacity="0" stroke="#6E4100" stroke-width="17" stroke-linecap="round" stroke-linejoin="round" id="path930"/>
    <path d="M205.387,634.119 C205.92,591.964 201.607,576.307 183.603,553.032 C169.245,534.484 147.911,546.945 137.931,561.335 C123.128,582.672 151.087,632.602 168.305,651.402 C147.98,657.123 135.647,700.437 137.405,718.654 C142.175,768.051 205.743,788.268 243.412,759.406 C288.1,725.164 279.46,672.506 248.519,645.914 C237.449,636.4 213.173,633.335 203.296,635.722" fill="#FFF8EB" id="path932"/>
    <path d="M205.387,634.119 C205.92,591.964 201.607,576.307 183.603,553.032 C169.245,534.484 147.911,546.945 137.931,561.335 C123.128,582.672 151.087,632.602 168.305,651.402 C147.98,657.123 135.647,700.437 137.405,718.654 C142.175,768.051 205.743,788.268 243.412,759.406 C288.1,725.164 279.46,672.506 248.519,645.914 C237.449,636.4 213.173,633.335 203.296,635.722" fill-opacity="0" stroke="#6E4100" stroke-width="17" stroke-linecap="round" stroke-linejoin="round" id="path934"/>
    <path d="M190.026,670.619 C204.936,675.346 210.306,699.525 200.817,711.291 C195.227,718.224 185.21,720.709 180.313,711.58 C181.361,739.368 164.848,730.371 164.848,730.371" fill="#FFF8EB" id="path936"/>
    <path d="M190.026,670.619 C204.936,675.346 210.306,699.525 200.817,711.291 C195.227,718.224 185.21,720.709 180.313,711.58 C181.361,739.368 164.848,730.371 164.848,730.371 M244.696,685.487 C234.052,684.422 219.191,683.365 215.063,696.532 C211.355,708.345 229.357,713.47 236.86,716.548" fill-opacity="0" stroke="#6E4100" stroke-width="17" stroke-linecap="round" stroke-linejoin="round" id="path938"/>
  </g>
</svg>
